<svg xmlns="http://www.w3.org/2000/svg" xmlns:xlink="http://www.w3.org/1999/xlink" width="500" zoomAndPan="magnify" viewBox="0 0 375 187.499995" height="250" preserveAspectRatio="xMidYMid meet" version="1.0"><defs><g/><clipPath id="591720133f"><path d="M 6.109375 11.667969 L 148 11.667969 L 148 175.289062 L 6.109375 175.289062 Z M 6.109375 11.667969 " clip-rule="nonzero"/></clipPath><clipPath id="a14075fec6"><path d="M 6.109375 15.410156 L 6.109375 171.632812 C 6.109375 173.699219 7.78125 175.371094 9.847656 175.371094 L 144.640625 175.371094 C 146.707031 175.371094 148.382812 173.699219 148.382812 171.632812 L 148.382812 15.410156 C 148.382812 13.34375 146.707031 11.667969 144.640625 11.667969 L 9.847656 11.667969 C 7.78125 11.667969 6.109375 13.34375 6.109375 15.410156 Z M 6.109375 15.410156 " clip-rule="nonzero"/></clipPath><clipPath id="1295a1574c"><path d="M 67.863281 60.539062 L 86.769531 60.539062 L 86.769531 79.445312 L 67.863281 79.445312 Z M 67.863281 60.539062 " clip-rule="nonzero"/></clipPath><clipPath id="ef66b0d9e0"><path d="M 71.601562 60.539062 L 83.03125 60.539062 C 84.023438 60.539062 84.972656 60.933594 85.675781 61.632812 C 86.375 62.335938 86.769531 63.285156 86.769531 64.277344 L 86.769531 75.707031 C 86.769531 76.699219 86.375 77.648438 85.675781 78.351562 C 84.972656 79.050781 84.023438 79.445312 83.03125 79.445312 L 71.601562 79.445312 C 70.613281 79.445312 69.660156 79.050781 68.957031 78.351562 C 68.257812 77.648438 67.863281 76.699219 67.863281 75.707031 L 67.863281 64.277344 C 67.863281 63.285156 68.257812 62.335938 68.957031 61.632812 C 69.660156 60.933594 70.613281 60.539062 71.601562 60.539062 Z M 71.601562 60.539062 " clip-rule="nonzero"/></clipPath><clipPath id="76493cd451"><path d="M 90.8125 98.140625 L 109.71875 98.140625 L 109.71875 117.050781 L 90.8125 117.050781 Z M 90.8125 98.140625 " clip-rule="nonzero"/></clipPath><clipPath id="354597e2bb"><path d="M 94.550781 98.140625 L 105.980469 98.140625 C 106.972656 98.140625 107.921875 98.535156 108.625 99.238281 C 109.324219 99.9375 109.71875 100.890625 109.71875 101.882812 L 109.71875 113.308594 C 109.71875 114.300781 109.324219 115.253906 108.625 115.953125 C 107.921875 116.65625 106.972656 117.050781 105.980469 117.050781 L 94.550781 117.050781 C 93.558594 117.050781 92.609375 116.65625 91.90625 115.953125 C 91.207031 115.253906 90.8125 114.300781 90.8125 113.308594 L 90.8125 101.882812 C 90.8125 100.890625 91.207031 99.9375 91.90625 99.238281 C 92.609375 98.535156 93.558594 98.140625 94.550781 98.140625 Z M 94.550781 98.140625 " clip-rule="nonzero"/></clipPath><clipPath id="66922be2e7"><path d="M 44.769531 72.410156 L 63.679688 72.410156 L 63.679688 91.320312 L 44.769531 91.320312 Z M 44.769531 72.410156 " clip-rule="nonzero"/></clipPath><clipPath id="5c0f99d929"><path d="M 48.511719 72.410156 L 59.9375 72.410156 C 60.929688 72.410156 61.882812 72.804688 62.582031 73.507812 C 63.285156 74.207031 63.679688 75.160156 63.679688 76.152344 L 63.679688 87.578125 C 63.679688 88.570312 63.285156 89.523438 62.582031 90.222656 C 61.882812 90.925781 60.929688 91.320312 59.9375 91.320312 L 48.511719 91.320312 C 47.519531 91.320312 46.566406 90.925781 45.867188 90.222656 C 45.164062 89.523438 44.769531 88.570312 44.769531 87.578125 L 44.769531 76.152344 C 44.769531 75.160156 45.164062 74.207031 45.867188 73.507812 C 46.566406 72.804688 47.519531 72.410156 48.511719 72.410156 Z M 48.511719 72.410156 " clip-rule="nonzero"/></clipPath><clipPath id="435b4f0c97"><path d="M 44.769531 98.140625 L 63.679688 98.140625 L 63.679688 117.050781 L 44.769531 117.050781 Z M 44.769531 98.140625 " clip-rule="nonzero"/></clipPath><clipPath id="4faeb4cddb"><path d="M 48.511719 98.140625 L 59.9375 98.140625 C 60.929688 98.140625 61.882812 98.535156 62.582031 99.238281 C 63.285156 99.9375 63.679688 100.890625 63.679688 101.882812 L 63.679688 113.308594 C 63.679688 114.300781 63.285156 115.253906 62.582031 115.953125 C 61.882812 116.65625 60.929688 117.050781 59.9375 117.050781 L 48.511719 117.050781 C 47.519531 117.050781 46.566406 116.65625 45.867188 115.953125 C 45.164062 115.253906 44.769531 114.300781 44.769531 113.308594 L 44.769531 101.882812 C 44.769531 100.890625 45.164062 99.9375 45.867188 99.238281 C 46.566406 98.535156 47.519531 98.140625 48.511719 98.140625 Z M 48.511719 98.140625 " clip-rule="nonzero"/></clipPath><clipPath id="889e4a46ef"><path d="M 67.839844 107.597656 L 86.746094 107.597656 L 86.746094 126.503906 L 67.839844 126.503906 Z M 67.839844 107.597656 " clip-rule="nonzero"/></clipPath><clipPath id="21cf7366c9"><path d="M 71.578125 107.597656 L 83.007812 107.597656 C 83.996094 107.597656 84.949219 107.988281 85.652344 108.691406 C 86.351562 109.394531 86.746094 110.34375 86.746094 111.335938 L 86.746094 122.761719 C 86.746094 123.753906 86.351562 124.707031 85.652344 125.40625 C 84.949219 126.109375 83.996094 126.503906 83.007812 126.503906 L 71.578125 126.503906 C 70.585938 126.503906 69.636719 126.109375 68.933594 125.40625 C 68.234375 124.707031 67.839844 123.753906 67.839844 122.761719 L 67.839844 111.335938 C 67.839844 110.34375 68.234375 109.394531 68.933594 108.691406 C 69.636719 107.988281 70.585938 107.597656 71.578125 107.597656 Z M 71.578125 107.597656 " clip-rule="nonzero"/></clipPath><clipPath id="531f14b81a"><path d="M 67.839844 84.152344 L 86.746094 84.152344 L 86.746094 103.058594 L 67.839844 103.058594 Z M 67.839844 84.152344 " clip-rule="nonzero"/></clipPath><clipPath id="e44631c541"><path d="M 71.578125 84.152344 L 83.007812 84.152344 C 83.996094 84.152344 84.949219 84.542969 85.652344 85.246094 C 86.351562 85.949219 86.746094 86.898438 86.746094 87.890625 L 86.746094 99.316406 C 86.746094 100.308594 86.351562 101.261719 85.652344 101.960938 C 84.949219 102.664062 83.996094 103.058594 83.007812 103.058594 L 71.578125 103.058594 C 70.585938 103.058594 69.636719 102.664062 68.933594 101.960938 C 68.234375 101.261719 67.839844 100.308594 67.839844 99.316406 L 67.839844 87.890625 C 67.839844 86.898438 68.234375 85.949219 68.933594 85.246094 C 69.636719 84.542969 70.585938 84.152344 71.578125 84.152344 Z M 71.578125 84.152344 " clip-rule="nonzero"/></clipPath><clipPath id="20af9c5ff1"><path d="M 90.8125 72.410156 L 109.71875 72.410156 L 109.71875 91.320312 L 90.8125 91.320312 Z M 90.8125 72.410156 " clip-rule="nonzero"/></clipPath><clipPath id="aba2db7a73"><path d="M 94.550781 72.410156 L 105.980469 72.410156 C 106.972656 72.410156 107.921875 72.804688 108.625 73.507812 C 109.324219 74.207031 109.71875 75.160156 109.71875 76.152344 L 109.71875 87.578125 C 109.71875 88.570312 109.324219 89.523438 108.625 90.222656 C 107.921875 90.925781 106.972656 91.320312 105.980469 91.320312 L 94.550781 91.320312 C 93.558594 91.320312 92.609375 90.925781 91.90625 90.222656 C 91.207031 89.523438 90.8125 88.570312 90.8125 87.578125 L 90.8125 76.152344 C 90.8125 75.160156 91.207031 74.207031 91.90625 73.507812 C 92.609375 72.804688 93.558594 72.410156 94.550781 72.410156 Z M 94.550781 72.410156 " clip-rule="nonzero"/></clipPath></defs><g clip-path="url(#591720133f)"><g clip-path="url(#a14075fec6)"><path fill="#191970" d="M 123.515625 175.351562 L 30.503906 175.351562 C 29.707031 175.351562 28.914062 175.3125 28.121094 175.234375 C 27.332031 175.152344 26.542969 175.035156 25.761719 174.878906 C 24.984375 174.722656 24.210938 174.53125 23.449219 174.300781 C 22.6875 174.066406 21.941406 173.800781 21.207031 173.492188 C 20.46875 173.1875 19.753906 172.847656 19.050781 172.472656 C 18.347656 172.097656 17.667969 171.6875 17.003906 171.246094 C 16.34375 170.804688 15.707031 170.332031 15.089844 169.824219 C 14.476562 169.320312 13.886719 168.785156 13.324219 168.222656 C 12.761719 167.660156 12.226562 167.070312 11.722656 166.457031 C 11.214844 165.839844 10.742188 165.203125 10.300781 164.542969 C 9.859375 163.878906 9.449219 163.199219 9.074219 162.496094 C 8.699219 161.792969 8.359375 161.074219 8.050781 160.339844 C 7.746094 159.605469 7.480469 158.859375 7.246094 158.097656 C 7.015625 157.335938 6.820312 156.5625 6.667969 155.78125 C 6.511719 155.003906 6.394531 154.214844 6.3125 153.425781 C 6.234375 152.632812 6.195312 151.839844 6.195312 151.042969 L 6.195312 85.839844 C 6.191406 84.304688 6.335938 82.785156 6.625 81.277344 C 6.917969 79.769531 7.351562 78.300781 7.929688 76.878906 C 8.503906 75.453125 9.210938 74.101562 10.050781 72.8125 C 10.886719 71.527344 11.84375 70.332031 12.914062 69.230469 L 62.667969 17.773438 C 63.132812 17.292969 63.617188 16.835938 64.128906 16.402344 C 64.636719 15.96875 65.164062 15.566406 65.714844 15.1875 C 66.265625 14.804688 66.832031 14.457031 67.417969 14.132812 C 68.003906 13.8125 68.601562 13.519531 69.21875 13.257812 C 69.832031 12.996094 70.457031 12.765625 71.09375 12.570312 C 71.734375 12.371094 72.378906 12.203125 73.035156 12.070312 C 73.6875 11.9375 74.347656 11.835938 75.011719 11.769531 C 75.675781 11.703125 76.34375 11.667969 77.011719 11.667969 C 77.679688 11.667969 78.34375 11.703125 79.007812 11.769531 C 79.671875 11.835938 80.332031 11.9375 80.988281 12.070312 C 81.640625 12.203125 82.289062 12.371094 82.925781 12.570312 C 83.5625 12.765625 84.1875 12.996094 84.804688 13.257812 C 85.417969 13.519531 86.015625 13.8125 86.601562 14.132812 C 87.1875 14.457031 87.753906 14.804688 88.304688 15.1875 C 88.855469 15.566406 89.382812 15.96875 89.894531 16.402344 C 90.402344 16.835938 90.886719 17.292969 91.351562 17.773438 L 145.746094 74.023438 C 146.085938 74.375 146.390625 74.753906 146.65625 75.160156 C 146.917969 75.570312 147.144531 76 147.324219 76.453125 C 147.503906 76.90625 147.636719 77.371094 147.726562 77.851562 C 147.816406 78.328125 147.855469 78.8125 147.847656 79.300781 C 147.839844 79.785156 147.785156 80.269531 147.683594 80.746094 C 147.582031 81.222656 147.433594 81.683594 147.242188 82.128906 C 147.046875 82.578125 146.8125 83 146.535156 83.402344 C 146.257812 83.800781 145.945312 84.171875 145.59375 84.511719 C 145.242188 84.851562 144.863281 85.152344 144.453125 85.414062 C 144.042969 85.679688 143.613281 85.898438 143.160156 86.078125 C 142.707031 86.257812 142.238281 86.386719 141.757812 86.472656 C 141.28125 86.5625 140.796875 86.597656 140.308594 86.589844 C 139.824219 86.582031 139.339844 86.523438 138.863281 86.417969 C 138.390625 86.316406 137.929688 86.164062 137.480469 85.96875 C 137.035156 85.773438 136.613281 85.535156 136.214844 85.257812 C 135.8125 84.976562 135.445312 84.664062 135.109375 84.3125 L 80.710938 28.082031 C 80.472656 27.828125 80.210938 27.601562 79.929688 27.402344 C 79.644531 27.203125 79.34375 27.035156 79.027344 26.898438 C 78.707031 26.757812 78.378906 26.65625 78.039062 26.585938 C 77.699219 26.515625 77.355469 26.480469 77.011719 26.480469 C 76.664062 26.480469 76.320312 26.515625 75.980469 26.585938 C 75.640625 26.65625 75.3125 26.757812 74.996094 26.898438 C 74.675781 27.035156 74.375 27.203125 74.09375 27.402344 C 73.808594 27.601562 73.546875 27.828125 73.3125 28.082031 L 23.550781 79.515625 C 22.730469 80.367188 22.097656 81.339844 21.660156 82.4375 C 21.222656 83.535156 21.003906 84.675781 21.011719 85.859375 L 21.011719 151.042969 C 21.011719 151.667969 21.074219 152.285156 21.199219 152.898438 C 21.320312 153.511719 21.5 154.105469 21.738281 154.679688 C 21.980469 155.257812 22.273438 155.804688 22.621094 156.324219 C 22.96875 156.84375 23.359375 157.324219 23.800781 157.765625 C 24.242188 158.207031 24.722656 158.601562 25.242188 158.949219 C 25.761719 159.296875 26.308594 159.589844 26.886719 159.828125 C 27.464844 160.066406 28.058594 160.246094 28.671875 160.371094 C 29.28125 160.492188 29.902344 160.554688 30.523438 160.554688 L 123.535156 160.554688 C 124.023438 160.554688 124.503906 160.601562 124.980469 160.699219 C 125.457031 160.792969 125.917969 160.933594 126.367188 161.117188 C 126.816406 161.304688 127.242188 161.53125 127.648438 161.800781 C 128.050781 162.070312 128.425781 162.378906 128.769531 162.722656 C 129.113281 163.066406 129.417969 163.4375 129.6875 163.84375 C 129.957031 164.246094 130.1875 164.671875 130.371094 165.121094 C 130.558594 165.570312 130.699219 166.035156 130.792969 166.511719 C 130.886719 166.988281 130.9375 167.46875 130.9375 167.953125 C 130.9375 168.441406 130.886719 168.921875 130.792969 169.398438 C 130.699219 169.875 130.558594 170.335938 130.371094 170.785156 C 130.1875 171.234375 129.957031 171.660156 129.6875 172.0625 C 129.417969 172.46875 129.113281 172.84375 128.769531 173.183594 C 128.425781 173.527344 128.050781 173.835938 127.648438 174.105469 C 127.242188 174.375 126.816406 174.601562 126.367188 174.789062 C 125.917969 174.976562 125.457031 175.117188 124.980469 175.210938 C 124.503906 175.304688 124.023438 175.351562 123.535156 175.351562 Z M 123.515625 175.351562 " fill-opacity="1" fill-rule="nonzero"/></g></g><g fill="#191970" fill-opacity="1"><g transform="translate(129.264393, 141.112731)"><g><path d="M 21.21875 -15.6875 C 22.988281 -15.300781 24.410156 -14.421875 25.484375 -13.046875 C 26.554688 -11.671875 27.09375 -10.097656 27.09375 -8.328125 C 27.09375 -5.765625 26.195312 -3.734375 24.40625 -2.234375 C 22.625 -0.742188 20.140625 0 16.953125 0 L 2.703125 0 L 2.703125 -30.578125 L 16.46875 -30.578125 C 19.570312 -30.578125 22.003906 -29.863281 23.765625 -28.4375 C 25.523438 -27.019531 26.40625 -25.09375 26.40625 -22.65625 C 26.40625 -20.851562 25.929688 -19.351562 24.984375 -18.15625 C 24.035156 -16.96875 22.78125 -16.144531 21.21875 -15.6875 Z M 10.15625 -18.203125 L 15.03125 -18.203125 C 16.25 -18.203125 17.179688 -18.472656 17.828125 -19.015625 C 18.484375 -19.554688 18.8125 -20.347656 18.8125 -21.390625 C 18.8125 -22.429688 18.484375 -23.226562 17.828125 -23.78125 C 17.179688 -24.332031 16.25 -24.609375 15.03125 -24.609375 L 10.15625 -24.609375 Z M 15.640625 -6.015625 C 16.890625 -6.015625 17.851562 -6.296875 18.53125 -6.859375 C 19.21875 -7.421875 19.5625 -8.242188 19.5625 -9.328125 C 19.5625 -10.398438 19.203125 -11.238281 18.484375 -11.84375 C 17.773438 -12.457031 16.796875 -12.765625 15.546875 -12.765625 L 10.15625 -12.765625 L 10.15625 -6.015625 Z M 15.640625 -6.015625 "/></g></g></g><g fill="#191970" fill-opacity="1"><g transform="translate(157.96691, 141.112731)"><g><path d="M 1.21875 -12.203125 C 1.21875 -14.691406 1.6875 -16.878906 2.625 -18.765625 C 3.570312 -20.660156 4.859375 -22.113281 6.484375 -23.125 C 8.117188 -24.144531 9.9375 -24.65625 11.9375 -24.65625 C 13.644531 -24.65625 15.144531 -24.304688 16.4375 -23.609375 C 17.738281 -22.910156 18.734375 -21.992188 19.421875 -20.859375 L 19.421875 -24.3125 L 26.875 -24.3125 L 26.875 0 L 19.421875 0 L 19.421875 -3.4375 C 18.703125 -2.3125 17.695312 -1.398438 16.40625 -0.703125 C 15.113281 -0.00390625 13.609375 0.34375 11.890625 0.34375 C 9.921875 0.34375 8.117188 -0.171875 6.484375 -1.203125 C 4.859375 -2.234375 3.570312 -3.695312 2.625 -5.59375 C 1.6875 -7.5 1.21875 -9.703125 1.21875 -12.203125 Z M 19.421875 -12.15625 C 19.421875 -14.007812 18.90625 -15.472656 17.875 -16.546875 C 16.84375 -17.628906 15.585938 -18.171875 14.109375 -18.171875 C 12.628906 -18.171875 11.375 -17.640625 10.34375 -16.578125 C 9.3125 -15.515625 8.796875 -14.054688 8.796875 -12.203125 C 8.796875 -10.335938 9.3125 -8.859375 10.34375 -7.765625 C 11.375 -6.679688 12.628906 -6.140625 14.109375 -6.140625 C 15.585938 -6.140625 16.84375 -6.675781 17.875 -7.75 C 18.90625 -8.820312 19.421875 -10.289062 19.421875 -12.15625 Z M 14.9375 -29.53125 L 8.1875 -25.96875 L 8.1875 -31.109375 L 14.9375 -34.546875 L 21.6875 -31.109375 L 21.6875 -25.96875 Z M 14.9375 -29.53125 "/></g></g></g><g fill="#191970" fill-opacity="1"><g transform="translate(187.54052, 141.112731)"><g><path d="M 16.25 -6.3125 L 16.25 0 L 12.453125 0 C 9.753906 0 7.648438 -0.660156 6.140625 -1.984375 C 4.628906 -3.304688 3.875 -5.460938 3.875 -8.453125 L 3.875 -18.125 L 0.921875 -18.125 L 0.921875 -24.3125 L 3.875 -24.3125 L 3.875 -30.234375 L 11.328125 -30.234375 L 11.328125 -24.3125 L 16.203125 -24.3125 L 16.203125 -18.125 L 11.328125 -18.125 L 11.328125 -8.359375 C 11.328125 -7.640625 11.5 -7.117188 11.84375 -6.796875 C 12.195312 -6.472656 12.78125 -6.3125 13.59375 -6.3125 Z M 16.25 -6.3125 "/></g></g></g><g fill="#191970" fill-opacity="1"><g transform="translate(205.22525, 141.112731)"><g><path d="M 34.15625 -30.140625 L 34.15625 0 L 30.1875 0 L 30.1875 -22.484375 L 20.171875 0 L 17.375 0 L 7.3125 -22.515625 L 7.3125 0 L 3.359375 0 L 3.359375 -30.140625 L 7.625 -30.140625 L 18.78125 -5.234375 L 29.921875 -30.140625 Z M 34.15625 -30.140625 "/></g></g></g><g fill="#191970" fill-opacity="1"><g transform="translate(242.725813, 141.112731)"><g><path d="M 13.765625 0.390625 C 11.523438 0.390625 9.5 -0.113281 7.6875 -1.125 C 5.875 -2.144531 4.453125 -3.59375 3.421875 -5.46875 C 2.390625 -7.34375 1.875 -9.515625 1.875 -11.984375 C 1.875 -14.421875 2.398438 -16.578125 3.453125 -18.453125 C 4.515625 -20.328125 5.960938 -21.765625 7.796875 -22.765625 C 9.628906 -23.765625 11.675781 -24.265625 13.9375 -24.265625 C 16.207031 -24.265625 18.253906 -23.765625 20.078125 -22.765625 C 21.910156 -21.765625 23.351562 -20.332031 24.40625 -18.46875 C 25.46875 -16.613281 26 -14.453125 26 -11.984375 C 26 -9.515625 25.453125 -7.34375 24.359375 -5.46875 C 23.273438 -3.59375 21.800781 -2.144531 19.9375 -1.125 C 18.082031 -0.113281 16.023438 0.390625 13.765625 0.390625 Z M 13.765625 -3.09375 C 15.191406 -3.09375 16.523438 -3.425781 17.765625 -4.09375 C 19.015625 -4.757812 20.023438 -5.757812 20.796875 -7.09375 C 21.566406 -8.4375 21.953125 -10.066406 21.953125 -11.984375 C 21.953125 -13.898438 21.570312 -15.523438 20.8125 -16.859375 C 20.0625 -18.191406 19.078125 -19.1875 17.859375 -19.84375 C 16.640625 -20.5 15.316406 -20.828125 13.890625 -20.828125 C 12.441406 -20.828125 11.113281 -20.5 9.90625 -19.84375 C 8.707031 -19.1875 7.742188 -18.191406 7.015625 -16.859375 C 6.285156 -15.523438 5.921875 -13.898438 5.921875 -11.984375 C 5.921875 -10.035156 6.273438 -8.390625 6.984375 -7.046875 C 7.703125 -5.710938 8.65625 -4.71875 9.84375 -4.0625 C 11.03125 -3.414062 12.335938 -3.09375 13.765625 -3.09375 Z M 13.765625 -3.09375 "/></g></g></g><g fill="#191970" fill-opacity="1"><g transform="translate(270.600795, 141.112731)"><g><path d="M 1.875 -12.015625 C 1.875 -14.460938 2.363281 -16.609375 3.34375 -18.453125 C 4.332031 -20.296875 5.691406 -21.722656 7.421875 -22.734375 C 9.148438 -23.753906 11.09375 -24.265625 13.25 -24.265625 C 15.101562 -24.265625 16.828125 -23.832031 18.421875 -22.96875 C 20.023438 -22.113281 21.25 -20.992188 22.09375 -19.609375 L 22.09375 -32.234375 L 26.09375 -32.234375 L 26.09375 0 L 22.09375 0 L 22.09375 -4.484375 C 21.300781 -3.066406 20.132812 -1.898438 18.59375 -0.984375 C 17.0625 -0.0664062 15.265625 0.390625 13.203125 0.390625 C 11.078125 0.390625 9.148438 -0.128906 7.421875 -1.171875 C 5.691406 -2.222656 4.332031 -3.691406 3.34375 -5.578125 C 2.363281 -7.460938 1.875 -9.609375 1.875 -12.015625 Z M 22.09375 -11.984375 C 22.09375 -13.785156 21.726562 -15.351562 21 -16.6875 C 20.269531 -18.019531 19.285156 -19.039062 18.046875 -19.75 C 16.816406 -20.46875 15.460938 -20.828125 13.984375 -20.828125 C 12.503906 -20.828125 11.15625 -20.476562 9.9375 -19.78125 C 8.71875 -19.082031 7.742188 -18.0625 7.015625 -16.71875 C 6.285156 -15.382812 5.921875 -13.816406 5.921875 -12.015625 C 5.921875 -10.191406 6.285156 -8.601562 7.015625 -7.25 C 7.742188 -5.90625 8.71875 -4.875 9.9375 -4.15625 C 11.15625 -3.445312 12.503906 -3.09375 13.984375 -3.09375 C 15.460938 -3.09375 16.816406 -3.445312 18.046875 -4.15625 C 19.285156 -4.875 20.269531 -5.90625 21 -7.25 C 21.726562 -8.601562 22.09375 -10.179688 22.09375 -11.984375 Z M 22.09375 -11.984375 "/></g></g></g><g fill="#191970" fill-opacity="1"><g transform="translate(300.043748, 141.112731)"><g><path d="M 24.53125 -23.875 L 24.53125 0 L 20.5625 0 L 20.5625 -3.53125 C 19.800781 -2.3125 18.742188 -1.359375 17.390625 -0.671875 C 16.046875 0.00390625 14.5625 0.34375 12.9375 0.34375 C 11.082031 0.34375 9.410156 -0.0351562 7.921875 -0.796875 C 6.441406 -1.566406 5.273438 -2.722656 4.421875 -4.265625 C 3.566406 -5.804688 3.140625 -7.679688 3.140625 -9.890625 L 3.140625 -23.875 L 7.0625 -23.875 L 7.0625 -10.40625 C 7.0625 -8.0625 7.65625 -6.253906 8.84375 -4.984375 C 10.03125 -3.722656 11.65625 -3.09375 13.71875 -3.09375 C 15.84375 -3.09375 17.515625 -3.742188 18.734375 -5.046875 C 19.953125 -6.359375 20.5625 -8.265625 20.5625 -10.765625 L 20.5625 -23.875 Z M 24.53125 -23.875 "/></g></g></g><g fill="#191970" fill-opacity="1"><g transform="translate(327.91873, 141.112731)"><g><path d="M 7.3125 -32.234375 L 7.3125 0 L 3.359375 0 L 3.359375 -32.234375 Z M 7.3125 -32.234375 "/></g></g></g><g fill="#191970" fill-opacity="1"><g transform="translate(338.633181, 141.112731)"><g><path d="M 25.140625 -12.84375 C 25.140625 -12.09375 25.09375 -11.296875 25 -10.453125 L 5.921875 -10.453125 C 6.066406 -8.097656 6.875 -6.257812 8.34375 -4.9375 C 9.8125 -3.625 11.585938 -2.96875 13.671875 -2.96875 C 15.390625 -2.96875 16.820312 -3.363281 17.96875 -4.15625 C 19.113281 -4.957031 19.921875 -6.023438 20.390625 -7.359375 L 24.65625 -7.359375 C 24.019531 -5.066406 22.742188 -3.203125 20.828125 -1.765625 C 18.910156 -0.328125 16.523438 0.390625 13.671875 0.390625 C 11.410156 0.390625 9.382812 -0.113281 7.59375 -1.125 C 5.8125 -2.144531 4.410156 -3.59375 3.390625 -5.46875 C 2.378906 -7.34375 1.875 -9.515625 1.875 -11.984375 C 1.875 -14.453125 2.363281 -16.613281 3.34375 -18.46875 C 4.332031 -20.332031 5.71875 -21.765625 7.5 -22.765625 C 9.289062 -23.765625 11.347656 -24.265625 13.671875 -24.265625 C 15.941406 -24.265625 17.945312 -23.769531 19.6875 -22.78125 C 21.425781 -21.789062 22.769531 -20.429688 23.71875 -18.703125 C 24.664062 -16.984375 25.140625 -15.03125 25.140625 -12.84375 Z M 21.046875 -13.671875 C 21.046875 -15.179688 20.707031 -16.484375 20.03125 -17.578125 C 19.363281 -18.671875 18.457031 -19.5 17.3125 -20.0625 C 16.164062 -20.625 14.894531 -20.90625 13.5 -20.90625 C 11.5 -20.90625 9.789062 -20.265625 8.375 -18.984375 C 6.96875 -17.710938 6.164062 -15.941406 5.96875 -13.671875 Z M 21.046875 -13.671875 "/></g></g></g><g clip-path="url(#1295a1574c)"><g clip-path="url(#ef66b0d9e0)"><path fill="#00a1d6" d="M 67.863281 60.539062 L 86.769531 60.539062 L 86.769531 79.445312 L 67.863281 79.445312 Z M 67.863281 60.539062 " fill-opacity="1" fill-rule="nonzero"/></g></g><g clip-path="url(#76493cd451)"><g clip-path="url(#354597e2bb)"><path fill="#63a4f4" d="M 90.8125 98.140625 L 109.71875 98.140625 L 109.71875 117.050781 L 90.8125 117.050781 Z M 90.8125 98.140625 " fill-opacity="1" fill-rule="nonzero"/></g></g><g clip-path="url(#66922be2e7)"><g clip-path="url(#5c0f99d929)"><path fill="#106ba0" d="M 44.769531 72.410156 L 63.679688 72.410156 L 63.679688 91.320312 L 44.769531 91.320312 Z M 44.769531 72.410156 " fill-opacity="1" fill-rule="nonzero"/></g></g><g clip-path="url(#435b4f0c97)"><g clip-path="url(#4faeb4cddb)"><path fill="#def3fa" d="M 44.769531 98.140625 L 63.679688 98.140625 L 63.679688 117.050781 L 44.769531 117.050781 Z M 44.769531 98.140625 " fill-opacity="1" fill-rule="nonzero"/></g></g><g clip-path="url(#889e4a46ef)"><g clip-path="url(#21cf7366c9)"><path fill="#a3c8f0" d="M 67.839844 107.597656 L 86.746094 107.597656 L 86.746094 126.503906 L 67.839844 126.503906 Z M 67.839844 107.597656 " fill-opacity="1" fill-rule="nonzero"/></g></g><g clip-path="url(#531f14b81a)"><g clip-path="url(#e44631c541)"><path fill="#0f52ba" d="M 67.839844 84.152344 L 86.746094 84.152344 L 86.746094 103.058594 L 67.839844 103.058594 Z M 67.839844 84.152344 " fill-opacity="1" fill-rule="nonzero"/></g></g><g clip-path="url(#20af9c5ff1)"><g clip-path="url(#aba2db7a73)"><path fill="#28c2ff" d="M 90.8125 72.410156 L 109.71875 72.410156 L 109.71875 91.320312 L 90.8125 91.320312 Z M 90.8125 72.410156 " fill-opacity="1" fill-rule="nonzero"/></g></g></svg>