<svg xmlns="http://www.w3.org/2000/svg" xmlns:xlink="http://www.w3.org/1999/xlink" width="500" zoomAndPan="magnify" viewBox="0 0 375 374.999991" height="500" preserveAspectRatio="xMidYMid meet" version="1.0"><defs><clipPath id="7b8e2aadf2"><path d="M 38.253906 25.160156 L 320 25.160156 L 320 349.910156 L 38.253906 349.910156 Z M 38.253906 25.160156 " clip-rule="nonzero"/></clipPath><clipPath id="bc6ce9d3b5"><path d="M 38.253906 28.910156 L 38.253906 346.089844 C 38.253906 348.160156 39.933594 349.839844 42.003906 349.839844 L 316.683594 349.839844 C 318.753906 349.839844 320.433594 348.160156 320.433594 346.089844 L 320.433594 28.910156 C 320.433594 26.839844 318.753906 25.160156 316.683594 25.160156 L 42.003906 25.160156 C 39.933594 25.160156 38.253906 26.839844 38.253906 28.910156 Z M 38.253906 28.910156 " clip-rule="nonzero"/></clipPath><clipPath id="8071cd7ebd"><path d="M 160.589844 122 L 198.234375 122 L 198.234375 159.585938 L 160.589844 159.585938 Z M 160.589844 122 " clip-rule="nonzero"/></clipPath><clipPath id="6e3a868e4e"><path d="M 164.484375 122.085938 L 194.484375 122.085938 C 196.558594 122.085938 198.234375 123.761719 198.234375 125.835938 L 198.234375 155.835938 C 198.234375 157.90625 196.558594 159.585938 194.484375 159.585938 L 164.484375 159.585938 C 162.414062 159.585938 160.734375 157.90625 160.734375 155.835938 L 160.734375 125.835938 C 160.734375 123.761719 162.414062 122.085938 164.484375 122.085938 Z M 164.484375 122.085938 " clip-rule="nonzero"/></clipPath><clipPath id="26ad3d4505"><path d="M 206.105469 196.519531 L 243.75 196.519531 L 243.75 234.164062 L 206.105469 234.164062 Z M 206.105469 196.519531 " clip-rule="nonzero"/></clipPath><clipPath id="984ec86cc1"><path d="M 210 196.664062 L 240 196.664062 C 242.074219 196.664062 243.75 198.34375 243.75 200.414062 L 243.75 230.414062 C 243.75 232.488281 242.074219 234.164062 240 234.164062 L 210 234.164062 C 207.929688 234.164062 206.25 232.488281 206.25 230.414062 L 206.25 200.414062 C 206.25 198.34375 207.929688 196.664062 210 196.664062 Z M 210 196.664062 " clip-rule="nonzero"/></clipPath><clipPath id="9c642cabb1"><path d="M 114.789062 145.488281 L 152.4375 145.488281 L 152.4375 183.132812 L 114.789062 183.132812 Z M 114.789062 145.488281 " clip-rule="nonzero"/></clipPath><clipPath id="5b66f4eb3c"><path d="M 118.6875 145.632812 L 148.6875 145.632812 C 150.757812 145.632812 152.4375 147.3125 152.4375 149.382812 L 152.4375 179.382812 C 152.4375 181.453125 150.757812 183.132812 148.6875 183.132812 L 118.6875 183.132812 C 116.613281 183.132812 114.9375 181.453125 114.9375 179.382812 L 114.9375 149.382812 C 114.9375 147.3125 116.613281 145.632812 118.6875 145.632812 Z M 118.6875 145.632812 " clip-rule="nonzero"/></clipPath><clipPath id="88039dec10"><path d="M 114.789062 196.519531 L 152.4375 196.519531 L 152.4375 234.164062 L 114.789062 234.164062 Z M 114.789062 196.519531 " clip-rule="nonzero"/></clipPath><clipPath id="0adfd4240f"><path d="M 118.6875 196.664062 L 148.6875 196.664062 C 150.757812 196.664062 152.4375 198.34375 152.4375 200.414062 L 152.4375 230.414062 C 152.4375 232.488281 150.757812 234.164062 148.6875 234.164062 L 118.6875 234.164062 C 116.613281 234.164062 114.9375 232.488281 114.9375 230.414062 L 114.9375 200.414062 C 114.9375 198.34375 116.613281 196.664062 118.6875 196.664062 Z M 118.6875 196.664062 " clip-rule="nonzero"/></clipPath><clipPath id="d86c35b20e"><path d="M 160.539062 215.269531 L 198.1875 215.269531 L 198.1875 252.914062 L 160.539062 252.914062 Z M 160.539062 215.269531 " clip-rule="nonzero"/></clipPath><clipPath id="e099e8d085"><path d="M 164.4375 215.414062 L 194.4375 215.414062 C 196.507812 215.414062 198.1875 217.09375 198.1875 219.164062 L 198.1875 249.164062 C 198.1875 251.238281 196.507812 252.914062 194.4375 252.914062 L 164.4375 252.914062 C 162.363281 252.914062 160.6875 251.238281 160.6875 249.164062 L 160.6875 219.164062 C 160.6875 217.09375 162.363281 215.414062 164.4375 215.414062 Z M 164.4375 215.414062 " clip-rule="nonzero"/></clipPath><clipPath id="499f7c0070"><path d="M 160.539062 168.769531 L 198.1875 168.769531 L 198.1875 206.414062 L 160.539062 206.414062 Z M 160.539062 168.769531 " clip-rule="nonzero"/></clipPath><clipPath id="f6a3ee63dc"><path d="M 164.4375 168.914062 L 194.4375 168.914062 C 196.507812 168.914062 198.1875 170.59375 198.1875 172.664062 L 198.1875 202.664062 C 198.1875 204.738281 196.507812 206.414062 194.4375 206.414062 L 164.4375 206.414062 C 162.363281 206.414062 160.6875 204.738281 160.6875 202.664062 L 160.6875 172.664062 C 160.6875 170.59375 162.363281 168.914062 164.4375 168.914062 Z M 164.4375 168.914062 " clip-rule="nonzero"/></clipPath><clipPath id="cd01f1dc11"><path d="M 206.105469 145.488281 L 243.75 145.488281 L 243.75 183.132812 L 206.105469 183.132812 Z M 206.105469 145.488281 " clip-rule="nonzero"/></clipPath><clipPath id="b7c030c0fb"><path d="M 210 145.632812 L 240 145.632812 C 242.074219 145.632812 243.75 147.3125 243.75 149.382812 L 243.75 179.382812 C 243.75 181.453125 242.074219 183.132812 240 183.132812 L 210 183.132812 C 207.929688 183.132812 206.25 181.453125 206.25 179.382812 L 206.25 149.382812 C 206.25 147.3125 207.929688 145.632812 210 145.632812 Z M 210 145.632812 " clip-rule="nonzero"/></clipPath></defs><g clip-path="url(#7b8e2aadf2)"><g clip-path="url(#bc6ce9d3b5)"><path fill="#191970" d="M 271.121094 349.804688 L 86.644531 349.804688 C 85.0625 349.804688 83.488281 349.722656 81.917969 349.566406 C 80.347656 349.410156 78.789062 349.179688 77.242188 348.871094 C 75.691406 348.558594 74.164062 348.175781 72.652344 347.714844 C 71.144531 347.257812 69.660156 346.722656 68.199219 346.121094 C 66.742188 345.515625 65.316406 344.839844 63.925781 344.09375 C 62.535156 343.351562 61.183594 342.539062 59.871094 341.660156 C 58.558594 340.785156 57.292969 339.84375 56.070312 338.84375 C 54.851562 337.839844 53.683594 336.78125 52.566406 335.667969 C 51.449219 334.550781 50.390625 333.382812 49.390625 332.160156 C 48.386719 330.941406 47.449219 329.675781 46.570312 328.363281 C 45.695312 327.050781 44.882812 325.699219 44.136719 324.308594 C 43.394531 322.914062 42.71875 321.488281 42.113281 320.03125 C 41.507812 318.574219 40.976562 317.089844 40.515625 315.578125 C 40.058594 314.070312 39.671875 312.539062 39.363281 310.992188 C 39.054688 309.445312 38.820312 307.882812 38.664062 306.3125 C 38.507812 304.742188 38.429688 303.167969 38.425781 301.589844 L 38.425781 172.269531 C 38.421875 169.226562 38.707031 166.207031 39.285156 163.214844 C 39.863281 160.226562 40.722656 157.320312 41.867188 154.496094 C 43.007812 151.671875 44.410156 148.984375 46.074219 146.429688 C 47.738281 143.878906 49.628906 141.511719 51.75 139.324219 L 150.4375 37.269531 C 151.355469 36.3125 152.320312 35.40625 153.328125 34.550781 C 154.339844 33.691406 155.390625 32.886719 156.480469 32.132812 C 157.570312 31.382812 158.695312 30.6875 159.855469 30.046875 C 161.015625 29.410156 162.207031 28.832031 163.425781 28.3125 C 164.644531 27.792969 165.886719 27.335938 167.148438 26.945312 C 168.414062 26.550781 169.695312 26.21875 170.992188 25.957031 C 172.292969 25.691406 173.601562 25.492188 174.917969 25.359375 C 176.234375 25.226562 177.558594 25.160156 178.882812 25.160156 C 180.207031 25.160156 181.527344 25.226562 182.84375 25.359375 C 184.164062 25.492188 185.472656 25.691406 186.769531 25.957031 C 188.066406 26.21875 189.347656 26.550781 190.613281 26.945312 C 191.878906 27.335938 193.121094 27.792969 194.339844 28.3125 C 195.558594 28.832031 196.746094 29.410156 197.90625 30.046875 C 199.066406 30.6875 200.191406 31.382812 201.285156 32.132812 C 202.375 32.886719 203.421875 33.691406 204.433594 34.550781 C 205.441406 35.40625 206.40625 36.3125 207.324219 37.269531 L 315.210938 148.835938 C 315.886719 149.527344 316.484375 150.277344 317.011719 151.085938 C 317.539062 151.898438 317.980469 152.75 318.339844 153.648438 C 318.695312 154.546875 318.964844 155.472656 319.140625 156.421875 C 319.316406 157.371094 319.394531 158.328125 319.382812 159.296875 C 319.367188 160.261719 319.257812 161.21875 319.054688 162.164062 C 318.851562 163.109375 318.558594 164.023438 318.175781 164.910156 C 317.792969 165.796875 317.324219 166.636719 316.777344 167.433594 C 316.226562 168.226562 315.605469 168.960938 314.910156 169.632812 C 314.214844 170.304688 313.460938 170.902344 312.648438 171.425781 C 311.835938 171.949219 310.980469 172.386719 310.082031 172.738281 C 309.179688 173.09375 308.253906 173.355469 307.304688 173.527344 C 306.351562 173.699219 305.394531 173.773438 304.429688 173.753906 C 303.460938 173.738281 302.507812 173.625 301.5625 173.417969 C 300.621094 173.210938 299.703125 172.914062 298.820312 172.523438 C 297.933594 172.136719 297.097656 171.667969 296.304688 171.113281 C 295.511719 170.558594 294.78125 169.933594 294.113281 169.234375 L 186.21875 57.710938 C 185.75 57.210938 185.230469 56.761719 184.667969 56.367188 C 184.105469 55.96875 183.511719 55.636719 182.878906 55.363281 C 182.25 55.089844 181.597656 54.882812 180.921875 54.742188 C 180.25 54.605469 179.570312 54.535156 178.882812 54.535156 C 178.195312 54.535156 177.511719 54.605469 176.839844 54.742188 C 176.167969 54.882812 175.515625 55.089844 174.882812 55.363281 C 174.253906 55.636719 173.65625 55.96875 173.09375 56.367188 C 172.53125 56.761719 172.015625 57.210938 171.542969 57.710938 L 72.847656 159.726562 C 71.222656 161.414062 69.972656 163.347656 69.101562 165.523438 C 68.230469 167.699219 67.804688 169.960938 67.816406 172.304688 L 67.816406 301.589844 C 67.820312 302.207031 67.851562 302.824219 67.910156 303.4375 C 67.972656 304.054688 68.0625 304.664062 68.183594 305.269531 C 68.304688 305.875 68.457031 306.472656 68.636719 307.0625 C 68.816406 307.65625 69.023438 308.234375 69.261719 308.804688 C 69.496094 309.375 69.761719 309.933594 70.054688 310.480469 C 70.34375 311.023438 70.660156 311.550781 71.003906 312.066406 C 71.347656 312.578125 71.714844 313.074219 72.109375 313.550781 C 72.5 314.03125 72.914062 314.488281 73.351562 314.921875 C 73.789062 315.359375 74.246094 315.773438 74.722656 316.167969 C 75.199219 316.558594 75.695312 316.925781 76.207031 317.269531 C 76.722656 317.613281 77.25 317.929688 77.796875 318.222656 C 78.339844 318.511719 78.898438 318.777344 79.46875 319.015625 C 80.039062 319.25 80.621094 319.457031 81.210938 319.640625 C 81.800781 319.820312 82.398438 319.96875 83.007812 320.089844 C 83.613281 320.210938 84.222656 320.300781 84.835938 320.363281 C 85.449219 320.425781 86.066406 320.457031 86.683594 320.457031 L 271.160156 320.457031 C 272.125 320.457031 273.078125 320.550781 274.023438 320.738281 C 274.96875 320.925781 275.886719 321.203125 276.777344 321.574219 C 277.667969 321.941406 278.511719 322.394531 279.316406 322.929688 C 280.117188 323.464844 280.855469 324.074219 281.539062 324.753906 C 282.21875 325.4375 282.828125 326.175781 283.363281 326.976562 C 283.898438 327.78125 284.351562 328.625 284.71875 329.515625 C 285.089844 330.40625 285.367188 331.324219 285.554688 332.269531 C 285.742188 333.214844 285.835938 334.167969 285.835938 335.132812 C 285.835938 336.09375 285.742188 337.046875 285.554688 337.992188 C 285.367188 338.9375 285.089844 339.855469 284.71875 340.746094 C 284.351562 341.636719 283.898438 342.484375 283.363281 343.285156 C 282.828125 344.085938 282.21875 344.824219 281.539062 345.507812 C 280.855469 346.1875 280.117188 346.796875 279.316406 347.332031 C 278.511719 347.867188 277.667969 348.320312 276.777344 348.6875 C 275.886719 349.058594 274.96875 349.335938 274.023438 349.523438 C 273.078125 349.710938 272.125 349.804688 271.160156 349.804688 Z M 271.121094 349.804688 " fill-opacity="1" fill-rule="nonzero"/></g></g><g clip-path="url(#8071cd7ebd)"><g clip-path="url(#6e3a868e4e)"><path fill="#00a1d6" d="M 160.734375 122.085938 L 198.234375 122.085938 L 198.234375 159.585938 L 160.734375 159.585938 Z M 160.734375 122.085938 " fill-opacity="1" fill-rule="nonzero"/></g></g><g clip-path="url(#26ad3d4505)"><g clip-path="url(#984ec86cc1)"><path fill="#63a4f4" d="M 206.25 196.664062 L 243.75 196.664062 L 243.75 234.164062 L 206.25 234.164062 Z M 206.25 196.664062 " fill-opacity="1" fill-rule="nonzero"/></g></g><g clip-path="url(#9c642cabb1)"><g clip-path="url(#5b66f4eb3c)"><path fill="#106ba0" d="M 114.9375 145.632812 L 152.4375 145.632812 L 152.4375 183.132812 L 114.9375 183.132812 Z M 114.9375 145.632812 " fill-opacity="1" fill-rule="nonzero"/></g></g><g clip-path="url(#88039dec10)"><g clip-path="url(#0adfd4240f)"><path fill="#def3fa" d="M 114.9375 196.664062 L 152.4375 196.664062 L 152.4375 234.164062 L 114.9375 234.164062 Z M 114.9375 196.664062 " fill-opacity="1" fill-rule="nonzero"/></g></g><g clip-path="url(#d86c35b20e)"><g clip-path="url(#e099e8d085)"><path fill="#a3c8f0" d="M 160.6875 215.414062 L 198.1875 215.414062 L 198.1875 252.914062 L 160.6875 252.914062 Z M 160.6875 215.414062 " fill-opacity="1" fill-rule="nonzero"/></g></g><g clip-path="url(#499f7c0070)"><g clip-path="url(#f6a3ee63dc)"><path fill="#0f52ba" d="M 160.6875 168.914062 L 198.1875 168.914062 L 198.1875 206.414062 L 160.6875 206.414062 Z M 160.6875 168.914062 " fill-opacity="1" fill-rule="nonzero"/></g></g><g clip-path="url(#cd01f1dc11)"><g clip-path="url(#b7c030c0fb)"><path fill="#28c2ff" d="M 206.25 145.632812 L 243.75 145.632812 L 243.75 183.132812 L 206.25 183.132812 Z M 206.25 145.632812 " fill-opacity="1" fill-rule="nonzero"/></g></g></svg>