<svg xmlns="http://www.w3.org/2000/svg" xmlns:xlink="http://www.w3.org/1999/xlink" width="500" zoomAndPan="magnify" viewBox="0 0 375 374.999991" height="500" preserveAspectRatio="xMidYMid meet" version="1.0"><defs><g/><clipPath id="8665f04dda"><path d="M 38.253906 25.160156 L 320 25.160156 L 320 349.910156 L 38.253906 349.910156 Z M 38.253906 25.160156 " clip-rule="nonzero"/></clipPath><clipPath id="149ba30f93"><path d="M 38.253906 28.910156 L 38.253906 346.089844 C 38.253906 348.160156 39.933594 349.839844 42.003906 349.839844 L 316.683594 349.839844 C 318.753906 349.839844 320.433594 348.160156 320.433594 346.089844 L 320.433594 28.910156 C 320.433594 26.839844 318.753906 25.160156 316.683594 25.160156 L 42.003906 25.160156 C 39.933594 25.160156 38.253906 26.839844 38.253906 28.910156 Z M 38.253906 28.910156 " clip-rule="nonzero"/></clipPath><clipPath id="0b194f74dc"><path d="M 160.589844 122 L 198.234375 122 L 198.234375 159.585938 L 160.589844 159.585938 Z M 160.589844 122 " clip-rule="nonzero"/></clipPath><clipPath id="959e70f1ca"><path d="M 164.484375 122.085938 L 194.484375 122.085938 C 196.558594 122.085938 198.234375 123.761719 198.234375 125.835938 L 198.234375 155.835938 C 198.234375 157.90625 196.558594 159.585938 194.484375 159.585938 L 164.484375 159.585938 C 162.414062 159.585938 160.734375 157.90625 160.734375 155.835938 L 160.734375 125.835938 C 160.734375 123.761719 162.414062 122.085938 164.484375 122.085938 Z M 164.484375 122.085938 " clip-rule="nonzero"/></clipPath><clipPath id="02e11ec133"><path d="M 206.105469 196.519531 L 243.75 196.519531 L 243.75 234.164062 L 206.105469 234.164062 Z M 206.105469 196.519531 " clip-rule="nonzero"/></clipPath><clipPath id="407a88af96"><path d="M 210 196.664062 L 240 196.664062 C 242.074219 196.664062 243.75 198.34375 243.75 200.414062 L 243.75 230.414062 C 243.75 232.488281 242.074219 234.164062 240 234.164062 L 210 234.164062 C 207.929688 234.164062 206.25 232.488281 206.25 230.414062 L 206.25 200.414062 C 206.25 198.34375 207.929688 196.664062 210 196.664062 Z M 210 196.664062 " clip-rule="nonzero"/></clipPath><clipPath id="78bb535591"><path d="M 114.789062 145.488281 L 152.4375 145.488281 L 152.4375 183.132812 L 114.789062 183.132812 Z M 114.789062 145.488281 " clip-rule="nonzero"/></clipPath><clipPath id="eda0dd2c3f"><path d="M 118.6875 145.632812 L 148.6875 145.632812 C 150.757812 145.632812 152.4375 147.3125 152.4375 149.382812 L 152.4375 179.382812 C 152.4375 181.453125 150.757812 183.132812 148.6875 183.132812 L 118.6875 183.132812 C 116.613281 183.132812 114.9375 181.453125 114.9375 179.382812 L 114.9375 149.382812 C 114.9375 147.3125 116.613281 145.632812 118.6875 145.632812 Z M 118.6875 145.632812 " clip-rule="nonzero"/></clipPath><clipPath id="032ddc7f5a"><path d="M 114.789062 196.519531 L 152.4375 196.519531 L 152.4375 234.164062 L 114.789062 234.164062 Z M 114.789062 196.519531 " clip-rule="nonzero"/></clipPath><clipPath id="1c819c44bf"><path d="M 118.6875 196.664062 L 148.6875 196.664062 C 150.757812 196.664062 152.4375 198.34375 152.4375 200.414062 L 152.4375 230.414062 C 152.4375 232.488281 150.757812 234.164062 148.6875 234.164062 L 118.6875 234.164062 C 116.613281 234.164062 114.9375 232.488281 114.9375 230.414062 L 114.9375 200.414062 C 114.9375 198.34375 116.613281 196.664062 118.6875 196.664062 Z M 118.6875 196.664062 " clip-rule="nonzero"/></clipPath><clipPath id="bbc2aff9c3"><path d="M 160.539062 215.269531 L 198.1875 215.269531 L 198.1875 252.914062 L 160.539062 252.914062 Z M 160.539062 215.269531 " clip-rule="nonzero"/></clipPath><clipPath id="fcf28a4ca6"><path d="M 164.4375 215.414062 L 194.4375 215.414062 C 196.507812 215.414062 198.1875 217.09375 198.1875 219.164062 L 198.1875 249.164062 C 198.1875 251.238281 196.507812 252.914062 194.4375 252.914062 L 164.4375 252.914062 C 162.363281 252.914062 160.6875 251.238281 160.6875 249.164062 L 160.6875 219.164062 C 160.6875 217.09375 162.363281 215.414062 164.4375 215.414062 Z M 164.4375 215.414062 " clip-rule="nonzero"/></clipPath><clipPath id="d5989f6436"><path d="M 160.539062 168.769531 L 198.1875 168.769531 L 198.1875 206.414062 L 160.539062 206.414062 Z M 160.539062 168.769531 " clip-rule="nonzero"/></clipPath><clipPath id="9676810446"><path d="M 164.4375 168.914062 L 194.4375 168.914062 C 196.507812 168.914062 198.1875 170.59375 198.1875 172.664062 L 198.1875 202.664062 C 198.1875 204.738281 196.507812 206.414062 194.4375 206.414062 L 164.4375 206.414062 C 162.363281 206.414062 160.6875 204.738281 160.6875 202.664062 L 160.6875 172.664062 C 160.6875 170.59375 162.363281 168.914062 164.4375 168.914062 Z M 164.4375 168.914062 " clip-rule="nonzero"/></clipPath><clipPath id="480e8b9c28"><path d="M 206.105469 145.488281 L 243.75 145.488281 L 243.75 183.132812 L 206.105469 183.132812 Z M 206.105469 145.488281 " clip-rule="nonzero"/></clipPath><clipPath id="dca36b7aa0"><path d="M 210 145.632812 L 240 145.632812 C 242.074219 145.632812 243.75 147.3125 243.75 149.382812 L 243.75 179.382812 C 243.75 181.453125 242.074219 183.132812 240 183.132812 L 210 183.132812 C 207.929688 183.132812 206.25 181.453125 206.25 179.382812 L 206.25 149.382812 C 206.25 147.3125 207.929688 145.632812 210 145.632812 Z M 210 145.632812 " clip-rule="nonzero"/></clipPath></defs><g clip-path="url(#8665f04dda)"><g clip-path="url(#149ba30f93)"><path fill="#f3f5f9" d="M 271.121094 349.804688 L 86.644531 349.804688 C 85.0625 349.804688 83.488281 349.722656 81.917969 349.566406 C 80.347656 349.410156 78.789062 349.179688 77.242188 348.871094 C 75.691406 348.558594 74.164062 348.175781 72.652344 347.714844 C 71.144531 347.257812 69.660156 346.722656 68.199219 346.121094 C 66.742188 345.515625 65.316406 344.839844 63.925781 344.09375 C 62.535156 343.351562 61.183594 342.539062 59.871094 341.660156 C 58.558594 340.785156 57.292969 339.84375 56.070312 338.84375 C 54.851562 337.839844 53.683594 336.78125 52.566406 335.667969 C 51.449219 334.550781 50.390625 333.382812 49.390625 332.160156 C 48.386719 330.941406 47.449219 329.675781 46.570312 328.363281 C 45.695312 327.050781 44.882812 325.699219 44.136719 324.308594 C 43.394531 322.914062 42.71875 321.488281 42.113281 320.03125 C 41.507812 318.574219 40.976562 317.089844 40.515625 315.578125 C 40.058594 314.070312 39.671875 312.539062 39.363281 310.992188 C 39.054688 309.445312 38.820312 307.882812 38.664062 306.3125 C 38.507812 304.742188 38.429688 303.167969 38.425781 301.589844 L 38.425781 172.269531 C 38.421875 169.226562 38.707031 166.207031 39.285156 163.214844 C 39.863281 160.226562 40.722656 157.320312 41.867188 154.496094 C 43.007812 151.671875 44.410156 148.984375 46.074219 146.429688 C 47.738281 143.878906 49.628906 141.511719 51.75 139.324219 L 150.4375 37.269531 C 151.355469 36.3125 152.320312 35.40625 153.328125 34.550781 C 154.339844 33.691406 155.390625 32.886719 156.480469 32.132812 C 157.570312 31.382812 158.695312 30.6875 159.855469 30.046875 C 161.015625 29.410156 162.207031 28.832031 163.425781 28.3125 C 164.644531 27.792969 165.886719 27.335938 167.148438 26.945312 C 168.414062 26.550781 169.695312 26.21875 170.992188 25.957031 C 172.292969 25.691406 173.601562 25.492188 174.917969 25.359375 C 176.234375 25.226562 177.558594 25.160156 178.882812 25.160156 C 180.207031 25.160156 181.527344 25.226562 182.84375 25.359375 C 184.164062 25.492188 185.472656 25.691406 186.769531 25.957031 C 188.066406 26.21875 189.347656 26.550781 190.613281 26.945312 C 191.878906 27.335938 193.121094 27.792969 194.339844 28.3125 C 195.558594 28.832031 196.746094 29.410156 197.90625 30.046875 C 199.066406 30.6875 200.191406 31.382812 201.285156 32.132812 C 202.375 32.886719 203.421875 33.691406 204.433594 34.550781 C 205.441406 35.40625 206.40625 36.3125 207.324219 37.269531 L 315.210938 148.835938 C 315.886719 149.527344 316.484375 150.277344 317.011719 151.085938 C 317.539062 151.898438 317.980469 152.75 318.339844 153.648438 C 318.695312 154.546875 318.964844 155.472656 319.140625 156.421875 C 319.316406 157.371094 319.394531 158.328125 319.382812 159.296875 C 319.367188 160.261719 319.257812 161.21875 319.054688 162.164062 C 318.851562 163.109375 318.558594 164.023438 318.175781 164.910156 C 317.792969 165.796875 317.324219 166.636719 316.777344 167.433594 C 316.226562 168.226562 315.605469 168.960938 314.910156 169.632812 C 314.214844 170.304688 313.460938 170.902344 312.648438 171.425781 C 311.835938 171.949219 310.980469 172.386719 310.082031 172.738281 C 309.179688 173.09375 308.253906 173.355469 307.304688 173.527344 C 306.351562 173.699219 305.394531 173.773438 304.429688 173.753906 C 303.460938 173.738281 302.507812 173.625 301.5625 173.417969 C 300.621094 173.210938 299.703125 172.914062 298.820312 172.523438 C 297.933594 172.136719 297.097656 171.667969 296.304688 171.113281 C 295.511719 170.558594 294.78125 169.933594 294.113281 169.234375 L 186.21875 57.710938 C 185.75 57.210938 185.230469 56.761719 184.667969 56.367188 C 184.105469 55.96875 183.511719 55.636719 182.878906 55.363281 C 182.25 55.089844 181.597656 54.882812 180.921875 54.742188 C 180.25 54.605469 179.570312 54.535156 178.882812 54.535156 C 178.195312 54.535156 177.511719 54.605469 176.839844 54.742188 C 176.167969 54.882812 175.515625 55.089844 174.882812 55.363281 C 174.253906 55.636719 173.65625 55.96875 173.09375 56.367188 C 172.53125 56.761719 172.015625 57.210938 171.542969 57.710938 L 72.847656 159.726562 C 71.222656 161.414062 69.972656 163.347656 69.101562 165.523438 C 68.230469 167.699219 67.804688 169.960938 67.816406 172.304688 L 67.816406 301.589844 C 67.820312 302.207031 67.851562 302.824219 67.910156 303.4375 C 67.972656 304.054688 68.0625 304.664062 68.183594 305.269531 C 68.304688 305.875 68.457031 306.472656 68.636719 307.0625 C 68.816406 307.65625 69.023438 308.234375 69.261719 308.804688 C 69.496094 309.375 69.761719 309.933594 70.054688 310.480469 C 70.34375 311.023438 70.660156 311.550781 71.003906 312.066406 C 71.347656 312.578125 71.714844 313.074219 72.109375 313.550781 C 72.5 314.03125 72.914062 314.488281 73.351562 314.921875 C 73.789062 315.359375 74.246094 315.773438 74.722656 316.167969 C 75.199219 316.558594 75.695312 316.925781 76.207031 317.269531 C 76.722656 317.613281 77.25 317.929688 77.796875 318.222656 C 78.339844 318.511719 78.898438 318.777344 79.46875 319.015625 C 80.039062 319.25 80.621094 319.457031 81.210938 319.640625 C 81.800781 319.820312 82.398438 319.96875 83.007812 320.089844 C 83.613281 320.210938 84.222656 320.300781 84.835938 320.363281 C 85.449219 320.425781 86.066406 320.457031 86.683594 320.457031 L 271.160156 320.457031 C 272.125 320.457031 273.078125 320.550781 274.023438 320.738281 C 274.96875 320.925781 275.886719 321.203125 276.777344 321.574219 C 277.667969 321.941406 278.511719 322.394531 279.316406 322.929688 C 280.117188 323.464844 280.855469 324.074219 281.539062 324.753906 C 282.21875 325.4375 282.828125 326.175781 283.363281 326.976562 C 283.898438 327.78125 284.351562 328.625 284.71875 329.515625 C 285.089844 330.40625 285.367188 331.324219 285.554688 332.269531 C 285.742188 333.214844 285.835938 334.167969 285.835938 335.132812 C 285.835938 336.09375 285.742188 337.046875 285.554688 337.992188 C 285.367188 338.9375 285.089844 339.855469 284.71875 340.746094 C 284.351562 341.636719 283.898438 342.484375 283.363281 343.285156 C 282.828125 344.085938 282.21875 344.824219 281.539062 345.507812 C 280.855469 346.1875 280.117188 346.796875 279.316406 347.332031 C 278.511719 347.867188 277.667969 348.320312 276.777344 348.6875 C 275.886719 349.058594 274.96875 349.335938 274.023438 349.523438 C 273.078125 349.710938 272.125 349.804688 271.160156 349.804688 Z M 271.121094 349.804688 " fill-opacity="1" fill-rule="nonzero"/></g></g><g fill="#f3f5f9" fill-opacity="1"><g transform="translate(73.54005, 311.055772)"><g><path d="M 21.921875 -16.203125 C 23.742188 -15.804688 25.207031 -14.894531 26.3125 -13.46875 C 27.425781 -12.050781 27.984375 -10.425781 27.984375 -8.59375 C 27.984375 -5.957031 27.0625 -3.863281 25.21875 -2.3125 C 23.375 -0.769531 20.800781 0 17.5 0 L 2.796875 0 L 2.796875 -31.59375 L 17.015625 -31.59375 C 20.222656 -31.59375 22.734375 -30.859375 24.546875 -29.390625 C 26.359375 -27.921875 27.265625 -25.925781 27.265625 -23.40625 C 27.265625 -21.539062 26.773438 -19.992188 25.796875 -18.765625 C 24.828125 -17.535156 23.535156 -16.679688 21.921875 -16.203125 Z M 10.484375 -18.8125 L 15.53125 -18.8125 C 16.789062 -18.8125 17.753906 -19.085938 18.421875 -19.640625 C 19.097656 -20.191406 19.4375 -21.007812 19.4375 -22.09375 C 19.4375 -23.175781 19.097656 -24 18.421875 -24.5625 C 17.753906 -25.132812 16.789062 -25.421875 15.53125 -25.421875 L 10.484375 -25.421875 Z M 16.15625 -6.203125 C 17.445312 -6.203125 18.441406 -6.492188 19.140625 -7.078125 C 19.847656 -7.671875 20.203125 -8.519531 20.203125 -9.625 C 20.203125 -10.738281 19.832031 -11.609375 19.09375 -12.234375 C 18.363281 -12.867188 17.351562 -13.1875 16.0625 -13.1875 L 10.484375 -13.1875 L 10.484375 -6.203125 Z M 16.15625 -6.203125 "/></g></g></g><g fill="#f3f5f9" fill-opacity="1"><g transform="translate(103.19502, 311.055772)"><g><path d="M 1.265625 -12.59375 C 1.265625 -15.175781 1.75 -17.441406 2.71875 -19.390625 C 3.695312 -21.335938 5.023438 -22.835938 6.703125 -23.890625 C 8.378906 -24.941406 10.253906 -25.46875 12.328125 -25.46875 C 14.097656 -25.46875 15.648438 -25.109375 16.984375 -24.390625 C 18.316406 -23.671875 19.34375 -22.726562 20.0625 -21.5625 L 20.0625 -25.109375 L 27.765625 -25.109375 L 27.765625 0 L 20.0625 0 L 20.0625 -3.5625 C 19.3125 -2.382812 18.269531 -1.4375 16.9375 -0.71875 C 15.601562 0 14.050781 0.359375 12.28125 0.359375 C 10.238281 0.359375 8.378906 -0.171875 6.703125 -1.234375 C 5.023438 -2.296875 3.695312 -3.8125 2.71875 -5.78125 C 1.75 -7.75 1.265625 -10.019531 1.265625 -12.59375 Z M 20.0625 -12.5625 C 20.0625 -14.476562 19.53125 -15.988281 18.46875 -17.09375 C 17.40625 -18.207031 16.109375 -18.765625 14.578125 -18.765625 C 13.046875 -18.765625 11.75 -18.21875 10.6875 -17.125 C 9.625 -16.03125 9.09375 -14.519531 9.09375 -12.59375 C 9.09375 -10.675781 9.625 -9.15625 10.6875 -8.03125 C 11.75 -6.90625 13.046875 -6.34375 14.578125 -6.34375 C 16.109375 -6.34375 17.40625 -6.894531 18.46875 -8 C 19.53125 -9.113281 20.0625 -10.632812 20.0625 -12.5625 Z M 15.4375 -30.515625 L 8.46875 -26.8125 L 8.46875 -32.125 L 15.4375 -35.6875 L 22.421875 -32.125 L 22.421875 -26.8125 Z M 15.4375 -30.515625 "/></g></g></g><g fill="#f3f5f9" fill-opacity="1"><g transform="translate(133.749988, 311.055772)"><g><path d="M 16.78125 -6.53125 L 16.78125 0 L 12.875 0 C 10.082031 0 7.90625 -0.679688 6.34375 -2.046875 C 4.78125 -3.410156 4 -5.640625 4 -8.734375 L 4 -18.71875 L 0.9375 -18.71875 L 0.9375 -25.109375 L 4 -25.109375 L 4 -31.234375 L 11.703125 -31.234375 L 11.703125 -25.109375 L 16.734375 -25.109375 L 16.734375 -18.71875 L 11.703125 -18.71875 L 11.703125 -8.640625 C 11.703125 -7.890625 11.878906 -7.347656 12.234375 -7.015625 C 12.597656 -6.691406 13.203125 -6.53125 14.046875 -6.53125 Z M 16.78125 -6.53125 "/></g></g></g><g fill="#f3f5f9" fill-opacity="1"><g transform="translate(152.020513, 311.055772)"><g><path d="M 35.28125 -31.140625 L 35.28125 0 L 31.1875 0 L 31.1875 -23.21875 L 20.828125 0 L 17.953125 0 L 7.5625 -23.265625 L 7.5625 0 L 3.46875 0 L 3.46875 -31.140625 L 7.875 -31.140625 L 19.390625 -5.40625 L 30.921875 -31.140625 Z M 35.28125 -31.140625 "/></g></g></g><g fill="#f3f5f9" fill-opacity="1"><g transform="translate(190.765479, 311.055772)"><g><path d="M 14.21875 0.40625 C 11.90625 0.40625 9.8125 -0.117188 7.9375 -1.171875 C 6.0625 -2.222656 4.59375 -3.710938 3.53125 -5.640625 C 2.46875 -7.578125 1.9375 -9.820312 1.9375 -12.375 C 1.9375 -14.894531 2.484375 -17.117188 3.578125 -19.046875 C 4.671875 -20.984375 6.160156 -22.46875 8.046875 -23.5 C 9.941406 -24.539062 12.0625 -25.0625 14.40625 -25.0625 C 16.738281 -25.0625 18.847656 -24.539062 20.734375 -23.5 C 22.628906 -22.46875 24.125 -20.992188 25.21875 -19.078125 C 26.3125 -17.160156 26.859375 -14.925781 26.859375 -12.375 C 26.859375 -9.820312 26.296875 -7.578125 25.171875 -5.640625 C 24.046875 -3.710938 22.523438 -2.222656 20.609375 -1.171875 C 18.691406 -0.117188 16.5625 0.40625 14.21875 0.40625 Z M 14.21875 -3.1875 C 15.6875 -3.1875 17.066406 -3.53125 18.359375 -4.21875 C 19.648438 -4.914062 20.691406 -5.953125 21.484375 -7.328125 C 22.285156 -8.710938 22.6875 -10.394531 22.6875 -12.375 C 22.6875 -14.351562 22.296875 -16.03125 21.515625 -17.40625 C 20.734375 -18.789062 19.710938 -19.820312 18.453125 -20.5 C 17.191406 -21.175781 15.828125 -21.515625 14.359375 -21.515625 C 12.859375 -21.515625 11.484375 -21.175781 10.234375 -20.5 C 8.992188 -19.820312 8 -18.789062 7.25 -17.40625 C 6.5 -16.03125 6.125 -14.351562 6.125 -12.375 C 6.125 -10.363281 6.488281 -8.664062 7.21875 -7.28125 C 7.957031 -5.90625 8.941406 -4.878906 10.171875 -4.203125 C 11.398438 -3.523438 12.75 -3.1875 14.21875 -3.1875 Z M 14.21875 -3.1875 "/></g></g></g><g fill="#f3f5f9" fill-opacity="1"><g transform="translate(219.565449, 311.055772)"><g><path d="M 1.9375 -12.421875 C 1.9375 -14.941406 2.445312 -17.15625 3.46875 -19.0625 C 4.488281 -20.96875 5.890625 -22.441406 7.671875 -23.484375 C 9.453125 -24.535156 11.457031 -25.0625 13.6875 -25.0625 C 15.601562 -25.0625 17.382812 -24.617188 19.03125 -23.734375 C 20.6875 -22.847656 21.945312 -21.6875 22.8125 -20.25 L 22.8125 -33.296875 L 26.953125 -33.296875 L 26.953125 0 L 22.8125 0 L 22.8125 -4.640625 C 22 -3.171875 20.796875 -1.960938 19.203125 -1.015625 C 17.617188 -0.0664062 15.765625 0.40625 13.640625 0.40625 C 11.441406 0.40625 9.453125 -0.128906 7.671875 -1.203125 C 5.890625 -2.285156 4.488281 -3.800781 3.46875 -5.75 C 2.445312 -7.707031 1.9375 -9.929688 1.9375 -12.421875 Z M 22.8125 -12.375 C 22.8125 -14.238281 22.4375 -15.859375 21.6875 -17.234375 C 20.9375 -18.617188 19.921875 -19.675781 18.640625 -20.40625 C 17.367188 -21.144531 15.96875 -21.515625 14.4375 -21.515625 C 12.914062 -21.515625 11.523438 -21.148438 10.265625 -20.421875 C 9.003906 -19.703125 8 -18.648438 7.25 -17.265625 C 6.5 -15.890625 6.125 -14.273438 6.125 -12.421875 C 6.125 -10.523438 6.5 -8.878906 7.25 -7.484375 C 8 -6.097656 9.003906 -5.035156 10.265625 -4.296875 C 11.523438 -3.554688 12.914062 -3.1875 14.4375 -3.1875 C 15.96875 -3.1875 17.367188 -3.554688 18.640625 -4.296875 C 19.921875 -5.035156 20.9375 -6.097656 21.6875 -7.484375 C 22.4375 -8.878906 22.8125 -10.507812 22.8125 -12.375 Z M 22.8125 -12.375 "/></g></g></g><g fill="#f3f5f9" fill-opacity="1"><g transform="translate(249.985423, 311.055772)"><g><path d="M 25.328125 -24.65625 L 25.328125 0 L 21.234375 0 L 21.234375 -3.640625 C 20.453125 -2.378906 19.363281 -1.394531 17.96875 -0.6875 C 16.582031 0.0078125 15.046875 0.359375 13.359375 0.359375 C 11.441406 0.359375 9.71875 -0.0351562 8.1875 -0.828125 C 6.65625 -1.628906 5.445312 -2.820312 4.5625 -4.40625 C 3.675781 -6 3.234375 -7.9375 3.234375 -10.21875 L 3.234375 -24.65625 L 7.296875 -24.65625 L 7.296875 -10.75 C 7.296875 -8.320312 7.910156 -6.453125 9.140625 -5.140625 C 10.367188 -3.835938 12.046875 -3.1875 14.171875 -3.1875 C 16.359375 -3.1875 18.082031 -3.863281 19.34375 -5.21875 C 20.601562 -6.570312 21.234375 -8.535156 21.234375 -11.109375 L 21.234375 -24.65625 Z M 25.328125 -24.65625 "/></g></g></g><g fill="#f3f5f9" fill-opacity="1"><g transform="translate(278.785393, 311.055772)"><g><path d="M 7.5625 -33.296875 L 7.5625 0 L 3.46875 0 L 3.46875 -33.296875 Z M 7.5625 -33.296875 "/></g></g></g><g fill="#f3f5f9" fill-opacity="1"><g transform="translate(289.855377, 311.055772)"><g><path d="M 25.96875 -13.28125 C 25.96875 -12.5 25.921875 -11.671875 25.828125 -10.796875 L 6.125 -10.796875 C 6.269531 -8.367188 7.097656 -6.472656 8.609375 -5.109375 C 10.128906 -3.742188 11.96875 -3.0625 14.125 -3.0625 C 15.894531 -3.0625 17.375 -3.472656 18.5625 -4.296875 C 19.75 -5.117188 20.582031 -6.222656 21.0625 -7.609375 L 25.46875 -7.609375 C 24.8125 -5.234375 23.492188 -3.300781 21.515625 -1.8125 C 19.535156 -0.332031 17.070312 0.40625 14.125 0.40625 C 11.789062 0.40625 9.695312 -0.117188 7.84375 -1.171875 C 6 -2.222656 4.550781 -3.710938 3.5 -5.640625 C 2.457031 -7.578125 1.9375 -9.820312 1.9375 -12.375 C 1.9375 -14.925781 2.445312 -17.160156 3.46875 -19.078125 C 4.488281 -20.992188 5.921875 -22.46875 7.765625 -23.5 C 9.609375 -24.539062 11.726562 -25.0625 14.125 -25.0625 C 16.46875 -25.0625 18.539062 -24.550781 20.34375 -23.53125 C 22.144531 -22.507812 23.53125 -21.109375 24.5 -19.328125 C 25.476562 -17.546875 25.96875 -15.53125 25.96875 -13.28125 Z M 21.734375 -14.125 C 21.734375 -15.6875 21.390625 -17.03125 20.703125 -18.15625 C 20.015625 -19.28125 19.078125 -20.132812 17.890625 -20.71875 C 16.703125 -21.300781 15.390625 -21.59375 13.953125 -21.59375 C 11.878906 -21.59375 10.113281 -20.929688 8.65625 -19.609375 C 7.207031 -18.296875 6.378906 -16.46875 6.171875 -14.125 Z M 21.734375 -14.125 "/></g></g></g><g clip-path="url(#0b194f74dc)"><g clip-path="url(#959e70f1ca)"><path fill="#f3f5f9" d="M 160.734375 122.085938 L 198.234375 122.085938 L 198.234375 159.585938 L 160.734375 159.585938 Z M 160.734375 122.085938 " fill-opacity="1" fill-rule="nonzero"/></g></g><g clip-path="url(#02e11ec133)"><g clip-path="url(#407a88af96)"><path fill="#f3f5f9" d="M 206.25 196.664062 L 243.75 196.664062 L 243.75 234.164062 L 206.25 234.164062 Z M 206.25 196.664062 " fill-opacity="1" fill-rule="nonzero"/></g></g><g clip-path="url(#78bb535591)"><g clip-path="url(#eda0dd2c3f)"><path fill="#f3f5f9" d="M 114.9375 145.632812 L 152.4375 145.632812 L 152.4375 183.132812 L 114.9375 183.132812 Z M 114.9375 145.632812 " fill-opacity="1" fill-rule="nonzero"/></g></g><g clip-path="url(#032ddc7f5a)"><g clip-path="url(#1c819c44bf)"><path fill="#f3f5f9" d="M 114.9375 196.664062 L 152.4375 196.664062 L 152.4375 234.164062 L 114.9375 234.164062 Z M 114.9375 196.664062 " fill-opacity="1" fill-rule="nonzero"/></g></g><g clip-path="url(#bbc2aff9c3)"><g clip-path="url(#fcf28a4ca6)"><path fill="#f3f5f9" d="M 160.6875 215.414062 L 198.1875 215.414062 L 198.1875 252.914062 L 160.6875 252.914062 Z M 160.6875 215.414062 " fill-opacity="1" fill-rule="nonzero"/></g></g><g clip-path="url(#d5989f6436)"><g clip-path="url(#9676810446)"><path fill="#f3f5f9" d="M 160.6875 168.914062 L 198.1875 168.914062 L 198.1875 206.414062 L 160.6875 206.414062 Z M 160.6875 168.914062 " fill-opacity="1" fill-rule="nonzero"/></g></g><g clip-path="url(#480e8b9c28)"><g clip-path="url(#dca36b7aa0)"><path fill="#f3f5f9" d="M 206.25 145.632812 L 243.75 145.632812 L 243.75 183.132812 L 206.25 183.132812 Z M 206.25 145.632812 " fill-opacity="1" fill-rule="nonzero"/></g></g></svg>